inDegrees=no
num_controls=7
num_derivatives=13
num_iterations=133
num_multipliers=7
num_parameters=0
num_slacks=7
num_states=26
objective=5.592012
objective_accelerations=0.693034
objective_balance=0.037110
objective_effort=0.252610
objective_height=4.497661
objective_ligament=0.111596
solver_duration=1484.791638
status=Solve_Succeeded
success=true
DataType=double
version=3
OpenSimVersion=4.4-2022-07-23-0e9fedc
endheader
time	/jointset/ground_pelvis/pelvis_tilt/value	/jointset/ground_pelvis/pelvis_tx/value	/jointset/ground_pelvis/pelvis_ty/value	/jointset/hip_l/hip_flexion_l/value	/jointset/hip_l/hip_adduction_l/value	/jointset/hip_l/hip_rotation_l/value	/jointset/back/lumbar_extension/value	/jointset/patellofemoral_l/patellar_flexion_l/value	/jointset/knee_l/knee_flexion_l/value	/jointset/knee_l/knee_adduction_l/value	/jointset/knee_l/knee_rotation_l/value	/jointset/ankle_l/ankle_angle_l/value	/jointset/subtalar_l/subtalar_angle_l/value	/jointset/ground_pelvis/pelvis_tilt/speed	/jointset/ground_pelvis/pelvis_tx/speed	/jointset/ground_pelvis/pelvis_ty/speed	/jointset/hip_l/hip_flexion_l/speed	/jointset/hip_l/hip_adduction_l/speed	/jointset/hip_l/hip_rotation_l/speed	/jointset/back/lumbar_extension/speed	/jointset/patellofemoral_l/patellar_flexion_l/speed	/jointset/knee_l/knee_flexion_l/speed	/jointset/knee_l/knee_adduction_l/speed	/jointset/knee_l/knee_rotation_l/speed	/jointset/ankle_l/ankle_angle_l/speed	/jointset/subtalar_l/subtalar_angle_l/speed	/forceset/tau_hip_flexion_l	/forceset/tau_hip_adduction_l	/forceset/tau_hip_rotation_l	/forceset/tau_knee_flexion_l	/forceset/tau_ankle_angle_l	/forceset/tau_subtalar_angle_l	/forceset/tau_lumbar_extension	lambda_cid13_p0	lambda_cid13_p1	lambda_cid13_p2	lambda_cid13_p3	lambda_cid13_p4	lambda_cid13_p5	lambda_cid14_p0	/jointset/ground_pelvis/pelvis_tilt/accel	/jointset/ground_pelvis/pelvis_tx/accel	/jointset/ground_pelvis/pelvis_ty/accel	/jointset/hip_l/hip_flexion_l/accel	/jointset/hip_l/hip_adduction_l/accel	/jointset/hip_l/hip_rotation_l/accel	/jointset/back/lumbar_extension/accel	/jointset/patellofemoral_l/patellar_flexion_l/accel	/jointset/knee_l/knee_flexion_l/accel	/jointset/knee_l/knee_adduction_l/accel	/jointset/knee_l/knee_rotation_l/accel	/jointset/ankle_l/ankle_angle_l/accel	/jointset/subtalar_l/subtalar_angle_l/accel	gamma_cid13_p0	gamma_cid13_p1	gamma_cid13_p2	gamma_cid13_p3	gamma_cid13_p4	gamma_cid13_p5	gamma_cid14_p0
0.5	-0.2442907394164394	0.0169105292693076	0.7701615982331084	0.9508669431233184	-0.4454445593299367	-0.2210672697256246	-0.2510559646325519	0.8644916077118108	0.8644916077118207	-0.1120761764055066	-0.1637755201249991	0.2226298274173228	0.02353418316923392	-0.522882285313633	-0.08397217113873483	-0.5060663726928298	2.086501837798703	-0.2339115112164699	0.7838257527477677	-0.1359836063032668	2.141185873532186	2.141185873532175	0.1587989586045342	-0.06308738633575836	0.7699751828510816	0.163775205614108	-0.1251291250378761	0.02897520645047948	-0.01322229245381896	-0.2386948527948682	0.01307492761540682	0.03438871702758092	0.1380124404721412	-27.92494976677436	-13.93416332323052	6.327285822194947	-2.279560807929474	-521.9727028150453	-65.06568369955512	-22.50415854921268	0.4814863859644753	0.4242189057658044	-0.4938697702862783	-1.071542411408728	0.6897001963862062	-0.3047461175854609	1.007896775008771	-1.414155172267677	-1.414155172267682	0.0332752862359418	0.1380418463253454	-0.6404219938613906	0.5845149744607441	-6.465442047563852e-07	-1.323113776595637e-07	3.832798812275387e-06	2.544393548634116e-07	-7.390182994082593e-07	-5.857057739082493e-07	-5.020829695840981e-07
0.51	-0.2494941982497847	0.01609211068434961	0.7650773884537434	0.971674237448278	-0.4477502319630909	-0.2132418920548656	-0.2523661760207798	0.8858293171705057	0.8858293171705121	-0.1104915439785928	-0.1643984040903045	0.2302959631299882	0.02519898895621142	-0.5177374712797643	-0.07970762161474129	-0.5106634003464259	2.074664846205045	-0.2272114015117445	0.7811435701931305	-0.1260753955073726	2.126065081168094	2.126065081168094	0.1581226467707276	-0.06148962034801243	0.7631415410337937	0.1691538193591831	-0.1293789479241367	0.03026550882253867	-0.01306759701684967	-0.2418933040306427	0.01040112054187239	0.0343198761832929	0.1413970253709556	-28.95590858211159	-13.67374189604092	6.228642184873085	-1.857620408063362	-525.371776295908	-64.78275123033083	-21.49439236667081	0.541695084903867	0.4282164440016455	-0.4259386472933496	-1.283704728134436	0.6613660414067468	-0.2663396543819592	0.9797746072292995	-1.604582518663466	-1.604582518661736	-0.118701425326531	0.171357010459938	-0.7213923236739697	0.5092706300110259	-6.159053206767983e-07	2.312290462183317e-08	3.853551514521588e-06	2.888770653159375e-07	-7.231533238034927e-07	-4.459849017415799e-07	-4.879368257600327e-07
0.52	-0.2546440657082364	0.0153164662882887	0.7599505445209631	0.9923543764183334	-0.4499886635624242	-0.2054466132756387	-0.253577807025982	0.9070071104555201	0.9070071104555288	-0.1089137980714316	-0.1650051677886658	0.2378904510148788	0.02691652809173561	-0.5121640103336571	-0.07541733335931791	-0.5145932033759321	2.061070766819788	-0.220463304451379	0.7778059744393282	-0.1162675296974941	2.10920263879666	2.109202638796671	0.1574216546514216	-0.0598633329418294	0.7556456172960463	0.1743218753234679	-0.1336287708104397	0.0315558111946249	-0.01291290157962426	-0.245091755266432	0.007727313468347998	0.03425103533904279	0.1447816102697151	-29.98764147123462	-13.41213267752736	6.128610049787849	-1.481039421404883	-528.8047715556901	-64.5606014623264	-20.49411233091358	0.5672157684121975	0.4293666520517365	-0.3604248454682907	-1.422959969728321	0.6992976675142586	-0.4358287574184899	0.9878277778056934	-1.76248517373614	-1.762485173736142	0.02833922913608217	0.1437461300127522	-0.7728783779533673	0.5424034183026406	-5.793958198487995e-07	1.680614016225198e-07	3.837089457640576e-06	3.186048369495335e-07	-7.011430869406708e-07	-3.00757197609666e-07	-4.70578933683336e-07
0.53	-0.2597361755661173	0.01458377413913966	0.7547877716098298	1.012890093338603	-0.4521593245454658	-0.1976876247535372	-0.2546919556343454	0.9280077558301951	0.9280077558302066	-0.1073432608372052	-0.1655953348432027	0.2454067436621974	0.02868476077441225	-0.5061896953276207	-0.07112426689872176	-0.5178455387552493	2.045792146679269	-0.2136638142083253	0.7738897085445977	-0.106595804816019	2.090647674110583	2.090647674110607	0.1566757345374927	-0.05817103571244485	0.7475051457590923	0.1792836193043217	-0.1377845424757332	0.03267762791408442	-0.01267228860316975	-0.2484028630208422	0.00502668285396207	0.03408388744738911	0.1480538583509168	-31.03755502259002	-13.09382026353747	6.007170161035166	-0.9917976608211684	-532.2771438269243	-64.30760938390695	-19.50651207390164	0.6226960451754256	0.4288679226129763	-0.2903997862757678	-1.622481449356319	0.6704738888099446	-0.3852455096554029	0.9518029172913777	-1.943724127980943	-1.943724127979021	-0.1274317533502846	0.182574580105416	-0.8507728939567065	0.4664156608613492	-5.366613995756966e-07	3.081927977425331e-07	3.783179519010392e-06	3.440021472740142e-07	-6.722696850871711e-07	-1.531579229295336e-07	-4.489947088550092e-07
0.54	-0.2647665109382514	0.01389393091050642	0.7495959229644807	1.033264590374832	-0.4542619507888609	-0.1899709428911854	-0.2557103953791023	0.9488145071556273	0.94881450715564	-0.105780457628436	-0.1661684583133176	0.2528384033236732	0.03050128205147422	-0.4998091131825478	-0.06684754925616003	-0.5204083502190905	2.028826790013035	-0.2068563565209323	0.7693446424836726	-0.09712575697562403	2.07042382894701	2.070423828947046	0.1558748495558606	-0.05645461605488928	0.7387190201265273	0.1839795942005676	-0.1419403141409914	0.03379944463365461	-0.01243167562699739	-0.2517139707752282	0.002326052239616318	0.03391673955591334	0.1513261064321031	-32.0878679766321	-12.77372154699251	5.883487774319221	-0.5468232704132726	-535.773072946836	-64.11002415751857	-18.53395597697357	0.6484691962195333	0.4260968884448136	-0.2225200623730946	-1.760307274871388	0.7008911563821394	-0.5615887906574109	0.9474923695896982	-2.096261269235291	-2.096261269235308	0.01734625559543668	0.1485706156469578	-0.9020091970756204	0.4892496013810233	-4.870398343846058e-07	4.430056992711633e-07	3.68783788142368e-06	3.646083089160693e-07	-6.35802994307815e-07	-2.934782962010175e-09	-4.227345414078575e-07
0.55	-0.269731143713954	0.01324672749689228	0.7443819074923677	1.053461324093939	-0.4562963597802889	-0.1823026844190288	-0.2566351364639177	0.9694109275962852	0.9694109275962917	-0.1042257645120354	-0.1667241722469226	0.2601791380548384	0.03236362598468272	-0.4930510407930714	-0.06259989657355418	-0.5222766262333536	2.010247456549082	-0.2000262308936736	0.7642049379144498	-0.08786692872597489	2.048598099965855	2.048598099965856	0.155054377558917	-0.05469178179140787	0.7293300962020612	0.188444095963814	-0.1459962138659683	0.0348389009768745	-0.01210211153067341	-0.2551683266851269	-0.0002501958821150792	0.03359211170975848	0.1544934285550457	-33.10718090085514	-12.3738339360908	5.727865927610492	-0.04966056600631803	-539.2809733648784	-63.80672835065605	-17.57822316848758	0.6993592739251524	0.4231601616701214	-0.1513868578414045	-1.947711973269963	0.673399019176984	-0.5058421529222127	0.9084077419733456	-2.264970913168271	-2.264970913173419	-0.1330059554456897	0.1903168994102469	-0.971967431704268	0.4177760447499388	-4.359003512873053e-07	5.647985943322351e-07	3.56905939486467e-06	3.807035097814762e-07	-5.968581513498517e-07	1.408040492377318e-07	-3.95008967835261e-07
